<?xml version="1.0" ?><svg width="512px" height="512px" viewBox="0 0 512 512" id="fill" xmlns="http://www.w3.org/2000/svg"><title/><path d="M398.592,14H115.409A100.522,100.522,0,0,0,15,114.409V397.592A100.522,100.522,0,0,0,115.409,498H398.592A100.522,100.522,0,0,0,499,397.592V114.409A100.522,100.522,0,0,0,398.592,14ZM487,397.592A88.509,88.509,0,0,1,398.592,486H115.409A88.509,88.509,0,0,1,27,397.592V114.409A88.509,88.509,0,0,1,115.409,26H398.592A88.509,88.509,0,0,1,487,114.409Z"/><path d="M398,351H381.567l-23.054-67.929a6,6,0,0,0-11.364,0L324.1,351H303.958a6,6,0,0,0-5.627,3.917l-18.81,50.8-18.81-50.8A6,6,0,0,0,255.084,351H233.5l-22.636-27.789A6.1,6.1,0,0,0,206.14,321a6,6,0,0,0-4.669,2.322l-44.022,56.746L137.723,353.43A6,6,0,0,0,132.9,351H114a6,6,0,0,0,0,12h15.878l22.638,30.57a6,6,0,0,0,4.755,2.43h.067a6,6,0,0,0,4.741-2.322l44.247-57.037L226,360.789A6,6,0,0,0,230.648,363h20.26L273.9,425.083a6,6,0,0,0,11.253,0L308.135,363H328.4a6,6,0,0,0,5.681-4.071l18.755-55.26,18.755,55.26A6,6,0,0,0,377.268,363H398a6,6,0,0,0,0-12Z"/><path d="M251.759,283.557a6,6,0,0,0,8.485,0l88.741-88.742a65.5,65.5,0,1,0-92.63-92.63l-.353.353-.354-.353a65.5,65.5,0,0,0-92.631,92.63ZM171.5,110.67a53.51,53.51,0,0,1,75.661,0l4.6,4.6a6,6,0,0,0,8.486,0l4.595-4.6A53.5,53.5,0,0,1,340.5,186.33l-84.5,84.5-84.5-84.5a53.5,53.5,0,0,1,0-75.66Z"/></svg>