<?xml version="1.0" encoding="iso-8859-1"?>
<!-- Generator: Adobe Illustrator 19.0.0, SVG Export Plug-In . SVG Version: 6.00 Build 0)  -->
<svg version="1.1" id="Layer_1" xmlns="http://www.w3.org/2000/svg" xmlns:xlink="http://www.w3.org/1999/xlink" x="0px" y="0px"
	 viewBox="0 0 512 512" style="enable-background:new 0 0 512 512;" xml:space="preserve">
<g transform="translate(1 1)">
	<g>
		<g>
			<path d="M404.333,212.333h-12.8V129.56c0-24.747-20.48-45.227-45.227-45.227h-1.067l-5.76-10.24
				c-5.973-9.387-8.533-20.48-8.533-30.72C330.947,18.627,308.76-1,281.453-1h-87.04c-27.307,0-49.493,19.627-49.493,44.373
				c0,10.24-3.413,21.333-8.533,30.72l-5.76,10.24h-1.067c-24.747,0-45.227,20.48-45.227,45.227v250.88
				c0,24.747,20.48,45.227,45.227,45.227h1.067l5.76,10.24c5.973,9.387,8.533,20.48,8.533,30.72
				c0,24.747,22.187,44.373,49.493,44.373h87.04c27.307,0,49.493-19.627,50.347-44.373c0-10.24,3.413-21.333,8.533-30.72l5.76-10.24
				h0.213c24.747,0,45.227-20.48,45.227-45.227v-82.773h12.8c11.947,0,21.333-9.387,21.333-21.333v-42.667
				C425.667,221.72,416.28,212.333,404.333,212.333z M151.747,82.627c6.827-11.947,10.24-25.6,10.24-39.253
				c0-15.36,14.507-27.307,32.427-27.307h87.04c17.92,0,32.427,11.947,32.427,27.307c0,13.653,3.413,27.307,10.24,39.253
				l0.853,1.707H150.04L151.747,82.627z M323.267,427.373c-6.827,11.947-10.24,25.6-10.24,39.253
				c0,15.36-14.507,27.307-32.427,27.307h-87.04c-17.92,0-32.427-11.947-32.427-27.307c0-13.653-3.413-27.307-10.24-39.253
				l-0.853-1.707h174.08L323.267,427.373z M374.467,380.44c0,15.36-12.8,28.16-28.16,28.16H129.56c-15.36,0-28.16-12.8-28.16-28.16
				V129.56c0-15.36,12.8-28.16,28.16-28.16h216.747c15.36,0,28.16,12.8,28.16,28.16v82.773v85.333V380.44z M408.6,276.333
				c0,2.56-1.707,4.267-4.267,4.267h-12.8v-51.2h12.8c2.56,0,4.267,1.707,4.267,4.267V276.333z"/>
			<path d="M348.013,313.88h-17.067c-3.413,0-5.973,2.56-7.68,5.12l-15.36,31.573L288.28,278.04
				c-0.853-3.413-3.413-5.12-6.827-5.973c-3.413,0-6.827,1.707-8.533,4.267l-23.04,38.4H229.4c-2.56,0-5.12,0.853-6.827,3.413
				l-23.893,35.84L178.2,278.04c-0.853-3.413-3.413-5.12-6.827-5.973c-3.413-0.853-6.827,0.853-8.533,3.413l-31.573,47.787h-12.8
				c-5.12,0-8.533,3.413-8.533,8.533c0,5.12,3.413,8.533,8.533,8.533h17.067c2.56,0,5.12-1.707,6.827-3.413l23.893-35.84
				l20.48,75.947c0.853,3.413,3.413,5.12,6.827,5.973c0.853,0,0.853,0,1.707,0c2.56,0,5.12-1.707,6.827-3.413l31.573-47.787H255
				c2.56,0,5.973-1.707,5.973-5.12l15.36-25.6l20.48,74.24c0.853,3.413,4.267,5.973,7.68,5.973c3.413,0.853,6.827-0.853,8.533-4.267
				l23.04-46.08h11.947c5.12,0,8.533-3.413,8.533-8.533S353.133,313.88,348.013,313.88z"/>
			<path d="M178.2,152.6h119.467c4.267,0,8.533-3.413,8.533-8.533c0-5.12-3.413-8.533-8.533-8.533H178.2
				c-5.12,0-8.533,3.413-8.533,8.533C169.667,149.187,173.08,152.6,178.2,152.6z"/>
			<path d="M297.667,169.667h-25.6c-5.12,0-8.533,3.413-8.533,8.533s3.413,8.533,8.533,8.533h25.6c4.267,0,8.533-3.413,8.533-8.533
				S302.787,169.667,297.667,169.667z"/>
			<path d="M178.2,186.733h59.733c4.267,0,8.533-3.413,8.533-8.533s-3.413-8.533-8.533-8.533H178.2c-5.12,0-8.533,3.413-8.533,8.533
				S173.08,186.733,178.2,186.733z"/>
			<path d="M246.467,203.8c-5.12,0-8.533,3.413-8.533,8.533c0,5.12,3.413,8.533,8.533,8.533h51.2c4.267,0,8.533-3.413,8.533-8.533
				c0-5.12-3.413-8.533-8.533-8.533H246.467z"/>
			<path d="M178.2,220.867h34.133c4.267,0,8.533-3.413,8.533-8.533c0-5.12-3.413-8.533-8.533-8.533H178.2
				c-5.12,0-8.533,3.413-8.533,8.533C169.667,217.453,173.08,220.867,178.2,220.867z"/>
		</g>
	</g>
</g>
<g>
</g>
<g>
</g>
<g>
</g>
<g>
</g>
<g>
</g>
<g>
</g>
<g>
</g>
<g>
</g>
<g>
</g>
<g>
</g>
<g>
</g>
<g>
</g>
<g>
</g>
<g>
</g>
<g>
</g>
</svg>
